<svg width="0" height="0" class="hidden">
  <symbol xmlns="http://www.w3.org/2000/svg" viewBox="0 0 512 512" id="add-user">
    <path d="M255.501.499C174.053.499 107.79 66.763 107.79 148.21c0 50.449 25.429 95.065 64.137 121.724-36.139 12.471-69.263 33.071-97.091 60.899C26.577 379.093 0 443.254 0 511.501h39.922c0-118.871 96.708-215.579 215.579-215.579 81.448 0 147.711-66.264 147.711-147.712S336.949.499 255.501.499zm0 255.501c-59.435 0-107.789-48.354-107.789-107.789s48.354-107.79 107.789-107.79S363.29 88.775 363.29 148.211 314.936 256 255.501 256zm172.663 131.743v-83.837h-39.922v83.837h-83.837v39.922h83.837v83.836h39.922v-83.836H512v-39.922z"></path>
  </symbol>

  <symbol xmlns="http://www.w3.org/2000/svg" viewBox="0 0 576.85 576.85" id="attach">
    <path d="M189.239 517.987l238.933-238.933c28.734-28.734 28.704-75.501-.038-104.243-28.727-28.727-75.471-28.734-104.205 0L200.976 297.889c-5.97 5.977-5.967 15.66.006 21.633l8.474 8.474c5.975 5.975 15.662 5.975 21.637 0L355.737 203.35c12.28-10.624 31.021-9.975 42.566 1.876 11.941 12.257 11.444 31.981-.655 44.081L159.073 487.882c-26.489 26.488-69.624 26.473-96.104-.008-26.511-26.511-26.526-69.646-.007-96.164L354.903 99.768c40.987-40.987 107.709-40.859 148.545.271 40.813 41.107 39.974 107.775-.988 148.736L281.19 470.046c-5.975 5.975-5.975 15.662 0 21.637l8.498 8.498c5.976 5.976 15.662 5.976 21.638 0l222.779-222.779c56.707-57.566 56.451-150.528-.791-207.77s-150.182-57.476-207.74-.762L32.818 361.627c-43.097 43.097-43.097 113.24.03 156.368 43.12 43.119 113.264 43.119 156.391-.008z"></path>
    <path d="M111.044 550.833h-.007c-29.702-.001-57.596-11.538-78.543-32.484-43.314-43.314-43.327-113.778-.03-157.075L325.22 68.517c27.815-27.407 64.696-42.5 103.85-42.5 39.554 0 76.7 15.364 104.598 43.262 57.266 57.265 57.621 150.786.794 208.475l-222.783 222.78a15.698 15.698 0 01-11.173 4.628c-4.22 0-8.188-1.644-11.172-4.628l-8.498-8.498c-2.984-2.984-4.628-6.951-4.628-11.172s1.644-8.188 4.628-11.172l221.27-221.271c40.939-40.938 41.382-107.345.987-148.03-19.708-19.851-46.009-30.782-74.058-30.782-27.901 0-54.104 10.836-73.779 30.512L63.315 392.063c-12.73 12.729-19.739 29.681-19.736 47.731.003 18.048 7.015 34.997 19.743 47.726 12.717 12.718 29.66 19.721 47.707 19.721 18.042 0 34.978-7.001 47.69-19.713l238.575-238.574c11.985-11.986 12.277-31.445.65-43.378-5.806-5.96-13.599-9.242-21.941-9.242-7.346 0-14.428 2.626-19.939 7.395l-124.618 124.62a15.697 15.697 0 01-11.172 4.628c-4.22 0-8.188-1.644-11.172-4.628l-8.474-8.474c-6.157-6.157-6.16-16.179-.006-22.34l122.953-123.078c13.99-13.99 32.619-21.694 52.455-21.694 19.838 0 38.468 7.705 52.457 21.694 13.997 13.997 21.71 32.634 21.719 52.478.01 19.847-7.69 38.482-21.681 52.472L189.592 518.341c-20.952 20.952-48.85 32.492-78.548 32.492zM429.07 27.017c-38.89 0-75.521 14.99-103.146 42.209L33.171 361.98c-42.907 42.907-42.894 112.736.03 155.661 20.758 20.758 48.401 32.19 77.836 32.191h.007c29.433 0 57.077-11.435 77.841-32.199L427.818 278.7c13.801-13.801 21.397-32.185 21.388-51.765-.009-19.577-7.618-37.963-21.426-51.771-13.801-13.801-32.18-21.401-51.75-21.401-19.569 0-37.947 7.601-51.748 21.401L201.329 298.242c-5.764 5.771-5.762 15.158.006 20.926l8.474 8.474a14.704 14.704 0 0010.465 4.335c3.953 0 7.669-1.54 10.465-4.335l124.645-124.645a31.484 31.484 0 0120.62-7.663c8.615 0 16.662 3.39 22.658 9.544 12.006 12.323 11.71 32.413-.66 44.784L159.426 488.235c-12.901 12.9-30.088 20.006-48.397 20.006-18.314 0-35.508-7.107-48.414-20.014-12.917-12.918-20.033-30.118-20.036-48.433-.003-18.318 7.11-35.521 20.029-48.438L354.549 99.414c19.865-19.865 46.318-30.805 74.486-30.805 28.317 0 54.87 11.037 74.767 31.078 40.782 41.076 40.339 108.115-.989 149.442L281.543 470.4c-2.795 2.795-4.335 6.512-4.335 10.465s1.54 7.67 4.335 10.465l8.498 8.498a14.703 14.703 0 0010.465 4.335c3.953 0 7.67-1.539 10.466-4.335l222.779-222.779c56.44-57.295 56.087-150.185-.791-207.063-27.709-27.71-64.604-42.969-103.89-42.969z"></path>
  </symbol>

  <symbol xmlns="http://www.w3.org/2000/svg" viewBox="0 0 512 512" id="profile">
    <circle cx="256" cy="114.526" r="114.526"></circle>
    <path d="M256 256c-111.619 0-202.105 90.487-202.105 202.105 0 29.765 24.13 53.895 53.895 53.895h296.421c29.765 0 53.895-24.13 53.895-53.895C458.105 346.487 367.619 256 256 256z"></path>
  </symbol>

  <symbol xmlns="http://www.w3.org/2000/svg" viewBox="0 0 512.001 512.001" id="send">
    <path d="M9.47 192.489a15.065 15.065 0 00-.979 27.541l176.547 85.623L490.696.002 9.47 192.489zM206.344 326.96l85.624 176.548a15.065 15.065 0 0027.543-.979l192.49-481.223L206.344 326.96z"></path>
  </symbol>

  <symbol xmlns="http://www.w3.org/2000/svg" viewBox="0 0 515.555 515.555" id="setting">
    <path d="M496.679 212.208c25.167 25.167 25.167 65.971 0 91.138s-65.971 25.167-91.138 0-25.167-65.971 0-91.138 65.971-25.167 91.138 0m-193.332 0c25.167 25.167 25.167 65.971 0 91.138s-65.971 25.167-91.138 0-25.167-65.971 0-91.138 65.971-25.167 91.138 0m-193.333 0c25.167 25.167 25.167 65.971 0 91.138s-65.971 25.167-91.138 0-25.167-65.971 0-91.138 65.971-25.167 91.138 0"></path>
  </symbol>

  <symbol xmlns="http://www.w3.org/2000/svg" viewBox="0 0 56.966 56.966" id="search">
    <path d="M55.146 51.887L41.588 37.786A22.926 22.926 0 0046.984 23c0-12.682-10.318-23-23-23s-23 10.318-23 23 10.318 23 23 23c4.761 0 9.298-1.436 13.177-4.162l13.661 14.208c.571.593 1.339.92 2.162.92.779 0 1.518-.297 2.079-.837a3.004 3.004 0 00.083-4.242zM23.984 6c9.374 0 17 7.626 17 17s-7.626 17-17 17-17-7.626-17-17 7.626-17 17-17z"></path>
  </symbol>

  <symbol xmlns="http://www.w3.org/2000/svg" viewBox="0 0 492 492" id="left-arrow">
    <path d="M198.608 246.104L382.664 62.04c5.068-5.056 7.856-11.816 7.856-19.024 0-7.212-2.788-13.968-7.856-19.032l-16.128-16.12C361.476 2.792 354.712 0 347.504 0s-13.964 2.792-19.028 7.864L109.328 227.008c-5.084 5.08-7.868 11.868-7.848 19.084-.02 7.248 2.76 14.028 7.848 19.112l218.944 218.932c5.064 5.072 11.82 7.864 19.032 7.864 7.208 0 13.964-2.792 19.032-7.864l16.124-16.12c10.492-10.492 10.492-27.572 0-38.06L198.608 246.104z"></path>
  </symbol>
  
</svg>